#!OML:ASF F:\VICON\USERDATA\INSTALL\rory3\rory3.ASF
:FULLY-SPECIFIED
:DEGREES
1211
root 1.99898 22.6211 0.92692 -168.467 -10.543 180.742
lowerback 11.1571 0.80261 -7.36086
upperback 1.78456 0.0600009 0.691133
thorax -4.40252 0.0771136 4.88119
lowerneck -13.8619 2.35967 -10.996
upperneck 40.9485 0.0076897 4.93661
head 17.2419 -2.52974 3.78224
rclavicle 1.03368e-014 -2.70347e-014
rhumerus -10.8316 22.3732 -87.8749
rradius 52.1663
rwrist 55.1912
rhand -52.063 -2.20269
rfingers 7.12502
rthumb -24.5679 -30.6463
lclavicle 1.03368e-014 -2.70347e-014
lhumerus 24.2284 -29.9184 79.9763
lradius 65.8346
lwrist -36.9234
lhand -17.5522 31.9622
lfingers 7.12502
lthumb 8.70248 61.7628
rfemur -30.7639 1.44849 22.5183
rtibia 52.9035
rfoot -13.4705 -2.48862
rtoes 1.01658
lfemur -34.8636 10.7345 -26.9812
ltibia 35.1829
lfoot -11.8811 1.53002
ltoes 0.406279
1212
root 2.00889 22.61 0.942814 -168.421 -10.8102 180.719
lowerback 11.1112 0.74939 -7.28612
upperback 1.7436 0.003551 0.669324
thorax -4.41229 0.0512235 4.8237
lowerneck -13.6932 2.34203 -10.9595
upperneck 40.9053 -0.0648383 4.94038
head 17.1824 -2.55329 3.76088
rclavicle -3.04141e-014 4.77083e-015
rhumerus -10.7576 21.9352 -87.9443
rradius 51.9203
rwrist 55.2705
rhand -52.7077 -1.77832
rfingers 7.12502
rthumb -25.1858 -30.1366
lclavicle -3.04141e-014 4.77083e-015
lhumerus 24.4614 -30.0324 79.8858
lradius 65.6467
lwrist -36.8291
lhand -17.5016 32.0186
lfingers 7.12502
lthumb 8.75135 61.8172
rfemur -30.4692 1.23221 22.6322
rtibia 52.7873
rfoot -11.9137 -3.23426
rtoes 1.84689
lfemur -35.1448 10.7508 -27.0465
ltibia 35.3851
lfoot -12.0332 1.30619
ltoes 0.494655
1213
root 2.01786 22.5949 0.961705 -168.369 -11.1205 180.674
lowerback 11.0924 0.674047 -7.17587
upperback 1.72002 -0.081501 0.642613
thorax -4.4152 0.00915986 4.7452
lowerneck -13.7629 2.34249 -10.9439
upperneck 41.03 -0.110453 4.99289
head 17.2756 -2.57475 3.77819
rclavicle -4.96962e-015 -3.69739e-014
rhumerus -10.6205 21.5155 -87.9748
rradius 51.7194
rwrist 55.3464
rhand -52.8052 -1.63002
rfingers 7.12502
rthumb -25.2791 -29.9751
lclavicle -4.96962e-015 -3.69739e-014
lhumerus 24.7357 -30.0146 79.8638
lradius 65.4209
lwrist -36.8915
lhand -16.9903 31.6503
lfingers 7.12502
lthumb 9.24466 61.4276
rfemur -30.0781 0.942465 22.726
rtibia 52.5836
rfoot -10.3683 -3.98606
rtoes 3.31057
lfemur -35.4255 10.7172 -27.1501
ltibia 35.5663
lfoot -12.0871 1.12474
ltoes 0.787588
1214
root 2.02539 22.5776 0.979137 -168.342 -11.466 180.595
lowerback 11.1204 0.574046 -7.05403
upperback 1.67788 -0.203932 0.580589
thorax -4.45931 -0.0497317 4.62875
lowerneck -13.7722 2.34305 -10.6736
upperneck 41.093 -0.126058 4.78161
head 17.3188 -2.57386 3.62981
rclavicle 9.93923e-016 1.98785e-014
rhumerus -10.4359 21.32 -88.0256
rradius 51.4234
rwrist 55.2759
rhand -52.8766 -1.52774
rfingers 7.12502
rthumb -25.3476 -29.8632
lclavicle 9.93923e-016 1.98785e-014
lhumerus 24.9454 -29.9433 79.7968
lradius 65.2054
lwrist -36.9963
lhand -16.1514 30.8292
lfingers 7.12502
lthumb 10.0541 60.569
rfemur -29.6257 0.617762 22.7637
rtibia 52.3039
rfoot -8.89261 -4.7095
rtoes 5.56317
lfemur -35.6495 10.6767 -27.294
ltibia 35.7561
lfoot -12.1954 0.927137
ltoes 1.20467
1215
root 2.03437 22.561 0.994437 -168.346 -11.857 180.461
lowerback 11.1702 0.454574 -7.0385
upperback 1.65056 -0.365703 0.551616
thorax -4.49472 -0.127409 4.61374
lowerneck -13.6886 2.32974 -10.5444
upperneck 40.9766 -0.10198 4.62704
head 17.2309 -2.55183 3.53635
rclavicle 5.04913e-014 -1.43125e-014
rhumerus -10.2443 21.2419 -88.0435
rradius 51.0724
rwrist 55.3168
rhand -53.2192 -1.09635
rfingers 7.12502
rthumb -25.6757 -29.3848
lclavicle 5.04913e-014 -1.43125e-014
lhumerus 25.2158 -29.8569 79.6785
lradius 64.9718
lwrist -36.9726
lhand -15.6801 30.1823
lfingers 7.12502
lthumb 10.5088 59.8996
rfemur -29.1006 0.2892 22.7239
rtibia 51.948
rfoot -7.57429 -5.40458
rtoes 6.70806
lfemur -35.7984 10.5973 -27.463
ltibia 35.9047
lfoot -12.2311 0.644922
ltoes 1.3221
1216
root 2.04362 22.5469 1.00919 -168.365 -12.2474 180.335
lowerback 11.2116 0.34195 -7.00639
upperback 1.62853 -0.514822 0.536135
thorax -4.52177 -0.199456 4.60176
lowerneck -13.5938 2.301 -10.6325
upperneck 40.8798 -0.13889 4.70208
head 17.1554 -2.56159 3.5778
rclavicle 1.07344e-014 1.47101e-014
rhumerus -10.1045 21.1525 -87.9996
rradius 50.7799
rwrist 55.4438
rhand -53.87 -0.253623
rfingers 7.12502
rthumb -26.2989 -28.4506
lclavicle 1.07344e-014 1.47101e-014
lhumerus 25.5554 -29.8561 79.5486
lradius 64.6527
lwrist -36.7824
lhand -15.6456 30.0942
lfingers 7.12502
lthumb 10.5421 59.8098
rfemur -28.5141 0.0467434 22.693
rtibia 51.5001
rfoot -6.23382 -6.16939
rtoes 6.31267
lfemur -35.9392 10.5444 -27.6338
ltibia 36.0439
lfoot -12.1627 0.379235
ltoes 0.896695
1217
root 2.05236 22.5317 1.02299 -168.3 -12.6159 180.007
lowerback 11.1704 0.231249 -7.16252
upperback 1.64537 -0.681801 0.471258
thorax -4.45836 -0.283448 4.64518
lowerneck -13.7228 2.28815 -10.7139
upperneck 40.954 -0.167814 4.82439
head 17.2326 -2.57314 3.64804
rclavicle 2.78299e-014 2.90226e-014
rhumerus -9.85192 21.0686 -87.8735
rradius 50.5065
rwrist 55.679
rhand -54.6926 0.360524
rfingers 7.12502
rthumb -27.0861 -27.7165
lclavicle 2.78299e-014 2.90226e-014
lhumerus 25.8973 -29.9029 79.347
lradius 64.487
lwrist -36.4789
lhand -15.9983 30.6139
lfingers 7.12502
lthumb 10.2018 60.3465
rfemur -27.9812 -0.287025 22.4398
rtibia 50.9482
rfoot -4.69535 -6.80146
rtoes 5.71797
lfemur -36.1137 10.4214 -28.0158
ltibia 36.2208
lfoot -12.1502 0.113774
ltoes 0.831276
1218
root 2.06337 22.5135 1.03886 -168.235 -13.0738 179.659
lowerback 11.2041 0.0869583 -7.31705
upperback 1.64665 -0.899327 0.413243
thorax -4.44558 -0.390024 4.70342
lowerneck -13.8674 2.29022 -10.7974
upperneck 41.0048 -0.148708 4.92606
head 17.2956 -2.56444 3.71779
rclavicle -1.39149e-015 1.59028e-015
rhumerus -9.69205 20.903 -87.8032
rradius 50.3174
rwrist 56.1203
rhand -55.5215 0.269945
rfingers 7.12502
rthumb -27.8788 -27.6811
lclavicle -1.39149e-015 1.59028e-015
lhumerus 26.21 -29.9323 79.1217
lradius 64.3547
lwrist -36.1269
lhand -16.7634 31.1868
lfingers 7.12502
lthumb 9.46363 60.9543
rfemur -27.427 -0.718845 22.1889
rtibia 50.2834
rfoot -3.06093 -7.38426
rtoes 5.56379
lfemur -36.3609 10.308 -28.4178
ltibia 36.5028
lfoot -12.1468 -0.274038
ltoes 0.831061
1219
root 2.07614 22.4905 1.0536 -168.295 -13.6575 179.622
lowerback 11.3055 -0.0734774 -7.07247
upperback 1.64127 -1.09134 0.39614
thorax -4.4866 -0.486854 4.57668
lowerneck -13.8957 2.25502 -10.8431
upperneck 40.9829 -0.156471 4.90801
head 17.2929 -2.5713 3.71729
rclavicle -1.68967e-014 3.10104e-014
rhumerus -9.61968 20.6856 -87.7843
rradius 50.2421
rwrist 56.3974
rhand -56.066 -0.101244
rfingers 7.12502
rthumb -28.3993 -27.9667
lclavicle -1.68967e-014 3.10104e-014
lhumerus 26.5721 -30.0282 78.8817
lradius 64.1948
lwrist -35.9219
lhand -16.9419 31.4839
lfingers 7.12502
lthumb 9.29144 61.2592
rfemur -26.6643 -1.04485 22.2734
rtibia 49.4951
rfoot -1.64503 -7.93056
rtoes 6.64965
lfemur -36.6011 10.2416 -28.473
ltibia 36.8722
lfoot -12.1978 -0.727556
ltoes 0.959488
1220
root 2.08898 22.4603 1.06953 -168.421 -14.2473 179.678
lowerback 11.4624 -0.221715 -6.71179
upperback 1.62852 -1.257 0.371958
thorax -4.57387 -0.570749 4.37485
lowerneck -13.8534 2.21836 -10.806
upperneck 40.9843 -0.22451 4.88986
head 17.2917 -2.59588 3.69005
rclavicle 2.18663e-015 -1.19271e-014
rhumerus -9.56012 20.4804 -87.7959
rradius 50.2183
rwrist 56.4081
rhand -56.2632 -0.119975
rfingers 7.12502
rthumb -28.5877 -27.9539
lclavicle 2.18663e-015 -1.19271e-014
lhumerus 26.9021 -30.1356 78.6374
lradius 64.0449
lwrist -35.8192
lhand -16.635 31.4875
lfingers 7.12502
lthumb 9.58748 61.2494
rfemur -25.7997 -1.27568 22.4562
rtibia 48.619
rfoot -0.479608 -8.4974
rtoes 7.75605
lfemur -36.8566 10.1355 -28.3916
ltibia 37.3716
lfoot -12.3437 -1.16866
ltoes 1.0258
1221
root 2.09325 22.4295 1.08547 -168.53 -15.0957 179.5
lowerback 11.5992 -0.444656 -6.3199
upperback 1.65446 -1.5221 0.254964
thorax -4.60307 -0.709642 4.07174
lowerneck -13.7243 2.13892 -10.7689
upperneck 40.9236 -0.391241 4.94286
head 17.2442 -2.64537 3.67681
rclavicle -1.15295e-014 5.1684e-015
rhumerus -9.52374 20.1592 -87.7874
rradius 50.2437
rwrist 56.3816
rhand -56.4961 0.204712
rfingers 7.12502
rthumb -28.8102 -27.5915
lclavicle -1.15295e-014 5.1684e-015
lhumerus 27.3474 -30.3032 78.4018
lradius 63.7909
lwrist -35.7575
lhand -16.5119 31.3925
lfingers 7.12502
lthumb 9.70632 61.1489
rfemur -24.8901 -1.82125 22.3989
rtibia 47.646
rfoot 0.549386 -8.96273
rtoes 8.80036
lfemur -37.0592 9.65015 -28.4975
ltibia 37.9855
lfoot -12.5632 -1.49443
ltoes 1.09684
1222
root 2.11599 22.3981 1.10174 -168.321 -14.764 179.507
lowerback 11.1816 -0.228669 -6.27281
upperback 1.56605 -1.20405 0.0691748
thorax -4.50588 -0.552784 3.79355
lowerneck -13.3987 2.08528 -10.5693
upperneck 40.8371 -0.640209 5.06241
head 17.1385 -2.69815 3.64721
rclavicle 1.15295e-014 5.56597e-015
rhumerus -9.60564 19.76 -87.8863
rradius 50.3141
rwrist 56.2449
rhand -56.4662 0.283928
rfingers 7.12502
rthumb -28.7817 -27.5172
lclavicle 1.15295e-014 5.56597e-015
lhumerus 27.904 -30.7333 77.9541
lradius 63.5057
lwrist -35.4625
lhand -16.4907 31.4028
lfingers 7.12502
lthumb 9.72672 61.1582
rfemur -24.5078 -1.34178 22.3403
rtibia 46.5832
rfoot 1.89464 -9.254
rtoes 9.60751
lfemur -37.8063 10.2523 -28.6718
ltibia 38.7293
lfoot -12.8522 -1.84185
ltoes 1.45689
1223
root 2.14768 22.3607 1.11352 -168.446 -14.9688 179.677
lowerback 11.14 -0.148577 -6.08252
upperback 1.57233 -1.07544 -0.00625494
thorax -4.49533 -0.493519 3.58723
lowerneck -13.1999 2.02639 -10.285
upperneck 40.7777 -0.863013 5.10786
head 17.0788 -2.73486 3.57595
rclavicle 1.21259e-014 2.22639e-014
rhumerus -9.72263 19.5422 -87.9378
rradius 50.5761
rwrist 55.879
rhand -56.3124 0.465714
rfingers 7.12502
rthumb -28.6347 -27.3603
lclavicle 1.21259e-014 2.22639e-014
lhumerus 28.4935 -31.1542 77.4585
lradius 63.2604
lwrist -35.0793
lhand -16.8889 31.5451
lfingers 7.12502
lthumb 9.3425 61.3181
rfemur -23.6954 -0.991169 22.5789
rtibia 45.4281
rfoot 2.73449 -9.80491
rtoes 10.4938
lfemur -38.2899 10.5375 -28.4913
ltibia 39.5102
lfoot -13.1173 -2.29233
ltoes 1.93429
1224
root 2.18319 22.3219 1.1202 -168.701 -15.0693 180.117
lowerback 11.1074 -0.11216 -5.90759
upperback 1.6466 -0.993068 0.16137
thorax -4.40744 -0.459065 3.65147
lowerneck -13.2134 2.01103 -10.3069
upperneck 40.6775 -0.819033 5.08427
head 17.022 -2.70762 3.57663
rclavicle -6.75868e-015 8.34896e-015
rhumerus -9.6901 19.7594 -87.8346
rradius 50.8878
rwrist 55.5748
rhand -56.0805 0.858355
rfingers 7.12502
rthumb -28.4132 -27.0048
lclavicle -6.75868e-015 8.34896e-015
lhumerus 28.9782 -31.0683 77.2077
lradius 63.0323
lwrist -34.8142
lhand -17.7848 31.745
lfingers 7.12502
lthumb 8.47804 61.5548
rfemur -22.8082 -0.371258 23.0985
rtibia 44.2238
rfoot 3.351 -10.5137
rtoes 11.1823
lfemur -38.7818 11.0018 -28.025
ltibia 40.3415
lfoot -13.2544 -2.75939
ltoes 2.62318
1225
root 2.20747 22.2859 1.13321 -168.503 -15.4491 180.14
lowerback 10.7586 -0.259639 -5.8577
upperback 1.62628 -1.14695 0.257192
thorax -4.21723 -0.537253 3.73851
lowerneck -13.269 2.01845 -10.5008
upperneck 40.6147 -0.684738 5.04952
head 16.9873 -2.67594 3.61921
rclavicle -1.47101e-014 0
rhumerus -9.61012 20.123 -87.6303
rradius 51.1477
rwrist 55.37
rhand -55.9514 1.6117
rfingers 7.12502
rthumb -28.2898 -26.272
lclavicle -1.47101e-014 0
lhumerus 29.5066 -30.8405 76.9437
lradius 62.7621
lwrist -34.6288
lhand -18.2124 31.6846
lfingers 7.12502
lthumb 8.06539 61.5107
rfemur -22.2949 -0.215386 23.2036
rtibia 42.9974
rfoot 4.08002 -10.9739
rtoes 10.4409
lfemur -39.6038 11.2011 -28.1062
ltibia 41.1749
lfoot -13.3069 -3.44642
ltoes 4.1571
